<?xml version="1.0" encoding="UTF-8" standalone="no"?>
<!-- Created with Inkscape (http://www.inkscape.org/) -->

<svg
   width="297mm"
   height="210mm"
   viewBox="0 0 297 210"
   version="1.1"
   id="svg5"
   xml:space="preserve"
   inkscape:version="1.2.2 (732a01da63, 2022-12-09)"
   sodipodi:docname="flujo.svg"
   xmlns:inkscape="http://www.inkscape.org/namespaces/inkscape"
   xmlns:sodipodi="http://sodipodi.sourceforge.net/DTD/sodipodi-0.dtd"
   xmlns:xlink="http://www.w3.org/1999/xlink"
   xmlns="http://www.w3.org/2000/svg"
   xmlns:svg="http://www.w3.org/2000/svg"><sodipodi:namedview
     id="namedview7"
     pagecolor="#ffffff"
     bordercolor="#000000"
     borderopacity="0.25"
     inkscape:showpageshadow="2"
     inkscape:pageopacity="0.0"
     inkscape:pagecheckerboard="0"
     inkscape:deskcolor="#d1d1d1"
     inkscape:document-units="mm"
     showgrid="false"
     inkscape:zoom="1.0544998"
     inkscape:cx="525.36759"
     inkscape:cy="335.7042"
     inkscape:window-width="1920"
     inkscape:window-height="1017"
     inkscape:window-x="-8"
     inkscape:window-y="-8"
     inkscape:window-maximized="1"
     inkscape:current-layer="layer1" /><defs
     id="defs2"><marker
       style="overflow:visible"
       id="TriangleStart"
       refX="0"
       refY="0"
       orient="auto-start-reverse"
       inkscape:stockid="TriangleStart"
       markerWidth="5.3244081"
       markerHeight="6.155385"
       viewBox="0 0 5.3244081 6.1553851"
       inkscape:isstock="true"
       inkscape:collect="always"
       preserveAspectRatio="xMidYMid"><path
         transform="scale(0.5)"
         style="fill:context-stroke;fill-rule:evenodd;stroke:context-stroke;stroke-width:1pt"
         d="M 5.77,0 -2.88,5 V -5 Z"
         id="path135" /></marker><linearGradient
       id="linearGradient2795"><stop
         style="stop-color:#b8b8b8;stop-opacity:0.49803922;"
         offset="0"
         id="stop2797" /><stop
         style="stop-color:#7f7f7f;stop-opacity:0;"
         offset="1"
         id="stop2799" /></linearGradient><linearGradient
       id="linearGradient2787"><stop
         style="stop-color:#7f7f7f;stop-opacity:0.5;"
         offset="0"
         id="stop2789" /><stop
         style="stop-color:#7f7f7f;stop-opacity:0;"
         offset="1"
         id="stop2791" /></linearGradient><linearGradient
       id="linearGradient3676"><stop
         style="stop-color:#b2b2b2;stop-opacity:0.5;"
         offset="0"
         id="stop3678" /><stop
         style="stop-color:#b3b3b3;stop-opacity:0;"
         offset="1"
         id="stop3680" /></linearGradient><linearGradient
       id="linearGradient3236"><stop
         style="stop-color:#f4f4f4;stop-opacity:1"
         offset="0"
         id="stop3244" /><stop
         style="stop-color:white;stop-opacity:1"
         offset="1"
         id="stop3240" /></linearGradient><linearGradient
       id="linearGradient4671"><stop
         style="stop-color:#ffd43b;stop-opacity:1;"
         offset="0"
         id="stop4673" /><stop
         style="stop-color:#ffe873;stop-opacity:1"
         offset="1"
         id="stop4675" /></linearGradient><linearGradient
       id="linearGradient4689"><stop
         style="stop-color:#5a9fd4;stop-opacity:1;"
         offset="0"
         id="stop4691" /><stop
         style="stop-color:#306998;stop-opacity:1;"
         offset="1"
         id="stop4693" /></linearGradient><linearGradient
       x1="224.23996"
       y1="144.75717"
       x2="-65.308502"
       y2="144.75717"
       id="linearGradient2987"
       xlink:href="#linearGradient4671"
       gradientUnits="userSpaceOnUse"
       gradientTransform="translate(100.2702,99.61116)" /><linearGradient
       x1="172.94208"
       y1="77.475983"
       x2="26.670298"
       y2="76.313133"
       id="linearGradient2990"
       xlink:href="#linearGradient4689"
       gradientUnits="userSpaceOnUse"
       gradientTransform="translate(100.2702,99.61116)" /><linearGradient
       inkscape:collect="always"
       xlink:href="#linearGradient4671"
       id="linearGradient2255"
       gradientUnits="userSpaceOnUse"
       gradientTransform="matrix(0.562541,0,0,0.567972,-11.5974,-7.60954)"
       x1="224.23996"
       y1="144.75717"
       x2="-65.308502"
       y2="144.75717" /><linearGradient
       inkscape:collect="always"
       xlink:href="#linearGradient4689"
       id="linearGradient2258"
       gradientUnits="userSpaceOnUse"
       gradientTransform="matrix(0.562541,0,0,0.567972,-11.5974,-7.60954)"
       x1="172.94208"
       y1="76.176224"
       x2="26.670298"
       y2="76.313133" /><radialGradient
       inkscape:collect="always"
       xlink:href="#linearGradient2795"
       id="radialGradient2801"
       cx="61.518883"
       cy="132.28575"
       fx="61.518883"
       fy="132.28575"
       r="29.036913"
       gradientTransform="matrix(1,0,0,0.177966,0,108.7434)"
       gradientUnits="userSpaceOnUse" /><linearGradient
       inkscape:collect="always"
       xlink:href="#linearGradient4671"
       id="linearGradient1475"
       gradientUnits="userSpaceOnUse"
       gradientTransform="matrix(0.562541,0,0,0.567972,-14.99112,-11.702371)"
       x1="150.96111"
       y1="192.35176"
       x2="112.03144"
       y2="137.27299" /><linearGradient
       inkscape:collect="always"
       xlink:href="#linearGradient4689"
       id="linearGradient1478"
       gradientUnits="userSpaceOnUse"
       gradientTransform="matrix(0.562541,0,0,0.567972,-14.99112,-11.702371)"
       x1="26.648937"
       y1="20.603781"
       x2="135.66525"
       y2="114.39767" /><radialGradient
       inkscape:collect="always"
       xlink:href="#linearGradient2795"
       id="radialGradient1480"
       gradientUnits="userSpaceOnUse"
       gradientTransform="matrix(1.7490565e-8,-0.23994696,1.054668,3.7915457e-7,-83.7008,142.46201)"
       cx="61.518883"
       cy="132.28575"
       fx="61.518883"
       fy="132.28575"
       r="29.036913" /><linearGradient
       inkscape:collect="always"
       xlink:href="#linearGradient4689"
       id="linearGradient3586"
       gradientUnits="userSpaceOnUse"
       gradientTransform="matrix(0.562541,0,0,0.567972,-14.99112,-11.702371)"
       x1="26.648937"
       y1="20.603781"
       x2="135.66525"
       y2="114.39767" /><linearGradient
       inkscape:collect="always"
       xlink:href="#linearGradient4671"
       id="linearGradient3588"
       gradientUnits="userSpaceOnUse"
       gradientTransform="matrix(0.562541,0,0,0.567972,-14.99112,-11.702371)"
       x1="150.96111"
       y1="192.35176"
       x2="112.03144"
       y2="137.27299" /><radialGradient
       inkscape:collect="always"
       xlink:href="#linearGradient2795"
       id="radialGradient3590"
       gradientUnits="userSpaceOnUse"
       gradientTransform="matrix(1.7490565e-8,-0.23994696,1.054668,3.7915457e-7,-83.7008,142.46201)"
       cx="61.518883"
       cy="132.28575"
       fx="61.518883"
       fy="132.28575"
       r="29.036913" /><linearGradient
       id="gradientFill-1"
       x1="0.74144253"
       x2="590.86259"
       y1="3.6658269"
       y2="593.78698"
       gradientUnits="userSpaceOnUse"
       spreadMethod="pad"
       gradientTransform="scale(1.2219423,0.81836924)"><stop
         offset="0"
         stop-color="rgb(203,206,208)"
         stop-opacity="1"
         id="stop4705" /><stop
         offset="1"
         stop-color="rgb(132,131,139)"
         stop-opacity="1"
         id="stop4707" /></linearGradient><linearGradient
       id="gradientFill-2"
       x1="301.02603"
       x2="703.06751"
       y1="151.40061"
       y2="553.44209"
       gradientUnits="userSpaceOnUse"
       spreadMethod="pad"
       gradientTransform="scale(0.9899476,1.0101545)"><stop
         offset="0"
         stop-color="rgb(39,109,195)"
         stop-opacity="1"
         id="stop4710" /><stop
         offset="1"
         stop-color="rgb(22,92,170)"
         stop-opacity="1"
         id="stop4712" /></linearGradient></defs><g
     inkscape:label="Capa 1"
     inkscape:groupmode="layer"
     id="layer1"><path
       id="path396"
       style="fill:#008080;stroke:#020202;stroke-width:0.624616;stroke-linecap:round;stroke-linejoin:round"
       d="m 44.746461,59.596055 a 14.403901,14.856854 0 0 0 -10.33043,4.515925 15.219216,14.856854 0 0 0 -11.230106,14.326922 15.219216,14.856854 0 0 0 1.618374,6.651865 15.038034,15.309806 0 0 0 -5.604419,11.919328 15.038034,15.309806 0 0 0 14.841877,15.302345 14.403901,14.856854 0 0 0 13.331716,9.24754 14.403901,14.856854 0 0 0 11.707373,-6.21677 14.403901,14.856854 0 0 0 2.51544,0.2377 14.403901,14.856854 0 0 0 14.403792,-14.8568 14.403901,14.856854 0 0 0 -0.145908,-2.101235 14.403901,14.856854 0 0 0 7.030995,-12.755572 14.403901,14.856854 0 0 0 -14.404166,-14.856802 14.403901,14.856854 0 0 0 -0.72616,0.02799 14.041538,13.045042 0 0 0 -13.315298,-8.905723 14.041538,13.045042 0 0 0 -1.522473,0.08583 14.403901,14.856854 0 0 0 -8.170607,-2.622536 z" /><text
       xml:space="preserve"
       style="font-size:4.7707px;fill:#ffffff;fill-opacity:1;stroke:none;stroke-width:1.29973;stroke-linecap:round;stroke-linejoin:round"
       x="43.024857"
       y="91.518791"
       id="text520"><tspan
         sodipodi:role="line"
         id="tspan518"
         style="fill:#ffffff;fill-opacity:1;stroke:none;stroke-width:1.29973"
         x="43.024857"
         y="91.518791">datos</tspan></text><ellipse
       style="fill:#808000;fill-opacity:1;stroke:#ffffff;stroke-width:0.865;stroke-linecap:round;stroke-linejoin:round;stroke-opacity:1"
       id="path1128"
       cx="122.24194"
       cy="99"
       rx="11.887096"
       ry="4.6129031" /><ellipse
       style="fill:#808000;fill-opacity:1;stroke:#ffffff;stroke-width:0.865;stroke-linecap:round;stroke-linejoin:round;stroke-opacity:1"
       id="ellipse1286"
       cx="122.24194"
       cy="94.564514"
       rx="11.887096"
       ry="4.6129031" /><ellipse
       style="fill:#808000;fill-opacity:1;stroke:#ffffff;stroke-width:0.865;stroke-linecap:round;stroke-linejoin:round;stroke-opacity:1"
       id="ellipse1288"
       cx="122.24194"
       cy="90.483871"
       rx="11.887096"
       ry="4.6129031" /><ellipse
       style="fill:#808000;fill-opacity:1;stroke:#ffffff;stroke-width:0.865;stroke-linecap:round;stroke-linejoin:round;stroke-opacity:1"
       id="ellipse1290"
       cx="122.24194"
       cy="86.048386"
       rx="11.887096"
       ry="4.6129031" /><path
       style="fill:#808000;fill-opacity:1;stroke:#000000;stroke-width:0.865;stroke-linecap:round;stroke-linejoin:round;stroke-opacity:1;marker-end:url(#TriangleStart)"
       d="m 81.294469,93.839913 27.098151,0"
       id="path1346"
       sodipodi:nodetypes="cc" /><g
       id="g2319"
       transform="matrix(0.11934255,0,0,0.11934255,87.487828,86.684535)"><path
         style="fill:url(#linearGradient1478);fill-opacity:1"
         d="M 54.918785,9.1927389e-4 C 50.335132,0.02221727 45.957846,0.41313697 42.106285,1.0946693 30.760069,3.0991731 28.700036,7.2947714 28.700035,15.032169 v 10.21875 h 26.8125 v 3.40625 h -26.8125 -10.0625 c -7.792459,0 -14.6157588,4.683717 -16.7499998,13.59375 -2.46181998,10.212966 -2.57101508,16.586023 0,27.25 1.9059283,7.937852 6.4575432,13.593748 14.2499998,13.59375 h 9.21875 v -12.25 c 0,-8.849902 7.657144,-16.656248 16.75,-16.65625 h 26.78125 c 7.454951,0 13.406253,-6.138164 13.40625,-13.625 v -25.53125 c 0,-7.2663386 -6.12998,-12.7247771 -13.40625,-13.9374997 C 64.281548,0.32794397 59.502438,-0.02037903 54.918785,9.1927389e-4 Z m -14.5,8.21875012611 c 2.769547,0 5.03125,2.2986456 5.03125,5.1249996 -2e-6,2.816336 -2.261703,5.09375 -5.03125,5.09375 -2.779476,-1e-6 -5.03125,-2.277415 -5.03125,-5.09375 -10e-7,-2.826353 2.251774,-5.1249996 5.03125,-5.1249996 z"
         id="path1948" /><path
         style="fill:url(#linearGradient1475);fill-opacity:1"
         d="m 85.637535,28.657169 v 11.90625 c 0,9.230755 -7.825895,16.999999 -16.75,17 h -26.78125 c -7.335833,0 -13.406249,6.278483 -13.40625,13.625 v 25.531247 c 0,7.266344 6.318588,11.540324 13.40625,13.625004 8.487331,2.49561 16.626237,2.94663 26.78125,0 6.750155,-1.95439 13.406253,-5.88761 13.40625,-13.625004 V 86.500919 h -26.78125 v -3.40625 h 26.78125 13.406254 c 7.792461,0 10.696251,-5.435408 13.406241,-13.59375 2.79933,-8.398886 2.68022,-16.475776 0,-27.25 -1.92578,-7.757441 -5.60387,-13.59375 -13.406241,-13.59375 z m -15.0625,64.65625 c 2.779478,3e-6 5.03125,2.277417 5.03125,5.093747 -2e-6,2.826354 -2.251775,5.125004 -5.03125,5.125004 -2.76955,0 -5.03125,-2.29865 -5.03125,-5.125004 2e-6,-2.81633 2.261697,-5.093747 5.03125,-5.093747 z"
         id="path1950" /><ellipse
         style="opacity:0.44382;fill:url(#radialGradient1480);fill-opacity:1;fill-rule:nonzero;stroke:none;stroke-width:15.4174;stroke-miterlimit:4;stroke-dasharray:none;stroke-opacity:1"
         id="path1894"
         cx="55.816761"
         cy="127.70079"
         rx="35.930977"
         ry="6.9673119" /></g><path
       style="fill:none;fill-opacity:1;stroke:#000000;stroke-width:0.865;stroke-linecap:round;stroke-linejoin:round;stroke-opacity:1"
       d="m 154,45.064515 v 24.661291 h 28.03226"
       id="path3434" /><rect
       style="fill:none;fill-opacity:1;stroke:#000000;stroke-width:0.865;stroke-linecap:round;stroke-linejoin:round;stroke-opacity:1"
       id="rect3542"
       width="3.4596772"
       height="10.91129"
       x="156.04033"
       y="57.30645"
       ry="0" /><rect
       style="fill:none;fill-opacity:1;stroke:#000000;stroke-width:0.865;stroke-linecap:round;stroke-linejoin:round;stroke-opacity:1"
       id="rect3544"
       width="3.459671"
       height="14.725809"
       x="161.2742"
       y="53.491932"
       ry="0" /><rect
       style="fill:none;fill-opacity:1;stroke:#000000;stroke-width:0.865;stroke-linecap:round;stroke-linejoin:round;stroke-opacity:1"
       id="rect3546"
       width="3.459671"
       height="8.9596806"
       x="166.41936"
       y="59.258064"
       ry="0" /><rect
       style="fill:none;fill-opacity:1;stroke:#000000;stroke-width:0.865;stroke-linecap:round;stroke-linejoin:round;stroke-opacity:1"
       id="rect3548"
       width="3.459671"
       height="18.451616"
       x="171.65323"
       y="49.766129"
       ry="0" /><rect
       style="fill:none;fill-opacity:1;stroke:#000000;stroke-width:0.865;stroke-linecap:round;stroke-linejoin:round;stroke-opacity:1"
       id="rect3550"
       width="3.459671"
       height="15.346777"
       x="176.8871"
       y="52.870968"
       ry="0" /><path
       style="fill:none;fill-opacity:1;stroke:#000000;stroke-width:0.865;stroke-linecap:round;stroke-linejoin:round;stroke-opacity:1"
       d="m 154,96.877194 v 24.661296 h 28.03226"
       id="path3554" /><rect
       style="fill:none;fill-opacity:1;stroke:#000000;stroke-width:0.865;stroke-linecap:round;stroke-linejoin:round;stroke-opacity:1"
       id="rect3556"
       width="3.4596772"
       height="10.91129"
       x="156.04033"
       y="109.11913"
       ry="0" /><rect
       style="fill:none;fill-opacity:1;stroke:#000000;stroke-width:0.865;stroke-linecap:round;stroke-linejoin:round;stroke-opacity:1"
       id="rect3558"
       width="3.459671"
       height="14.725809"
       x="161.2742"
       y="105.30461"
       ry="0" /><rect
       style="fill:none;fill-opacity:1;stroke:#000000;stroke-width:0.865;stroke-linecap:round;stroke-linejoin:round;stroke-opacity:1"
       id="rect3560"
       width="3.459671"
       height="8.9596806"
       x="166.41936"
       y="111.07074"
       ry="0" /><rect
       style="fill:none;fill-opacity:1;stroke:#000000;stroke-width:0.865;stroke-linecap:round;stroke-linejoin:round;stroke-opacity:1"
       id="rect3562"
       width="3.459671"
       height="18.451616"
       x="171.65323"
       y="101.5788"
       ry="0" /><rect
       style="fill:none;fill-opacity:1;stroke:#000000;stroke-width:0.865;stroke-linecap:round;stroke-linejoin:round;stroke-opacity:1"
       id="rect3564"
       width="3.459671"
       height="15.346777"
       x="176.8871"
       y="104.68365"
       ry="0" /><path
       style="fill:#808000;fill-opacity:1;stroke:#000000;stroke-width:0.865;stroke-linecap:round;stroke-linejoin:round;stroke-opacity:1;marker-end:url(#TriangleStart)"
       d="m 133.48351,91.581733 17.81452,11.039987"
       id="path3568"
       sodipodi:nodetypes="cc" /><path
       style="fill:#808000;fill-opacity:1;stroke:#000000;stroke-width:0.865;stroke-linecap:round;stroke-linejoin:round;stroke-opacity:1;marker-end:url(#TriangleStart)"
       d="m 133.48351,91.581733 20.0727,-18.69271"
       id="path3572"
       sodipodi:nodetypes="cc" /><g
       id="g3584"
       transform="matrix(0.16677098,0,0,0.16677098,190.4886,48.015398)"><path
         style="fill:url(#linearGradient3586);fill-opacity:1"
         d="M 54.918785,9.1927389e-4 C 50.335132,0.02221727 45.957846,0.41313697 42.106285,1.0946693 30.760069,3.0991731 28.700036,7.2947714 28.700035,15.032169 v 10.21875 h 26.8125 v 3.40625 h -26.8125 -10.0625 c -7.792459,0 -14.6157588,4.683717 -16.7499998,13.59375 -2.46181998,10.212966 -2.57101508,16.586023 0,27.25 1.9059283,7.937852 6.4575432,13.593748 14.2499998,13.59375 h 9.21875 v -12.25 c 0,-8.849902 7.657144,-16.656248 16.75,-16.65625 h 26.78125 c 7.454951,0 13.406253,-6.138164 13.40625,-13.625 v -25.53125 c 0,-7.2663386 -6.12998,-12.7247771 -13.40625,-13.9374997 C 64.281548,0.32794397 59.502438,-0.02037903 54.918785,9.1927389e-4 Z m -14.5,8.21875012611 c 2.769547,0 5.03125,2.2986456 5.03125,5.1249996 -2e-6,2.816336 -2.261703,5.09375 -5.03125,5.09375 -2.779476,-1e-6 -5.03125,-2.277415 -5.03125,-5.09375 -10e-7,-2.826353 2.251774,-5.1249996 5.03125,-5.1249996 z"
         id="path3578" /><path
         style="fill:url(#linearGradient3588);fill-opacity:1"
         d="m 85.637535,28.657169 v 11.90625 c 0,9.230755 -7.825895,16.999999 -16.75,17 h -26.78125 c -7.335833,0 -13.406249,6.278483 -13.40625,13.625 v 25.531247 c 0,7.266344 6.318588,11.540324 13.40625,13.625004 8.487331,2.49561 16.626237,2.94663 26.78125,0 6.750155,-1.95439 13.406253,-5.88761 13.40625,-13.625004 V 86.500919 h -26.78125 v -3.40625 h 26.78125 13.406254 c 7.792461,0 10.696251,-5.435408 13.406241,-13.59375 2.79933,-8.398886 2.68022,-16.475776 0,-27.25 -1.92578,-7.757441 -5.60387,-13.59375 -13.406241,-13.59375 z m -15.0625,64.65625 c 2.779478,3e-6 5.03125,2.277417 5.03125,5.093747 -2e-6,2.826354 -2.251775,5.125004 -5.03125,5.125004 -2.76955,0 -5.03125,-2.29865 -5.03125,-5.125004 2e-6,-2.81633 2.261697,-5.093747 5.03125,-5.093747 z"
         id="path3580" /><ellipse
         style="opacity:0.44382;fill:url(#radialGradient3590);fill-opacity:1;fill-rule:nonzero;stroke:none;stroke-width:15.4174;stroke-miterlimit:4;stroke-dasharray:none;stroke-opacity:1"
         id="ellipse3582"
         cx="55.816761"
         cy="127.70079"
         rx="35.930977"
         ry="6.9673119" /></g><g
       id="g4733"
       transform="matrix(0.03421914,0,0,0.03421914,185.42911,101.98013)"><path
         d="M 361.453,485.937 C 162.329,485.937 0.906,377.828 0.906,244.469 0.906,111.109 162.329,3 361.453,3 560.578,3 722,111.109 722,244.469 722,377.828 560.578,485.937 361.453,485.937 Z M 416.641,97.406 c -151.352,0 -274.047,73.908 -274.047,165.078 0,91.17 122.695,165.078 274.047,165.078 151.351,0 263.046,-50.529 263.046,-165.078 0,-114.513 -111.695,-165.078 -263.046,-165.078 z"
         fill="url(#gradientFill-1)"
         fill-rule="evenodd"
         id="path4717"
         style="fill:url(#gradientFill-1)" /><path
         d="m 550,377 c 0,0 21.822,6.585 34.5,13 4.399,2.226 12.01,6.668 17.5,12.5 5.378,5.712 8,11.5 8,11.5 L 696,559 557,559.062 492,437 c 0,0 -13.31,-22.869 -21.5,-29.5 -6.832,-5.531 -9.745,-7.5 -16.5,-7.5 -4.702,0 -33.026,0 -33.026,0 L 421,558.974 298,559.026 V 152.938 h 247 c 0,0 112.5,2.029 112.5,109.062 0,107.033 -107.5,115 -107.5,115 z m -53.5,-135.976 -74.463,-0.048 -0.037,69.05 74.5,-0.024 c 0,0 34.5,-0.107 34.5,-35.125 0,-35.722 -34.5,-33.853 -34.5,-33.853 z"
         fill="url(#gradientFill-2)"
         fill-rule="evenodd"
         id="path4719"
         style="fill:url(#gradientFill-2)" /></g></g></svg>
